<?xml version="1.0" encoding="UTF-8"?>
<svg width="240px" height="183px" viewBox="0 0 240 183" version="1.1" xmlns="http://www.w3.org/2000/svg" xmlns:xlink="http://www.w3.org/1999/xlink">
    <!-- Generator: Sketch 60.1 (88133) - https://sketch.com -->
    <title>cloud-240-aws</title>
    <desc>Created with Sketch.</desc>
    <g id="Final-Copy" stroke="none" stroke-width="1" fill="none" fill-rule="evenodd">
        <g id="WebsiteFull" transform="translate(-198.000000, -1859.000000)">
            <g id="cloud-240-aws" transform="translate(198.000000, 1831.000000)">
                <rect id="Rectangle" x="0" y="0" width="240" height="240"></rect>
                <g id="amazon-web-services" transform="translate(38.000000, 80.000000)">
                    <path d="M46.97,35.97 C46.97,38.005 47.19,39.655 47.575,40.865 C48.015,42.075 48.565,43.395 49.335,44.825 C49.61,45.265 49.72,45.705 49.72,46.09 C49.72,46.64 49.39,47.19 48.675,47.74 L45.21,50.05 C44.715,50.38 44.22,50.545 43.78,50.545 C43.23,50.545 42.68,50.27 42.13,49.775 C41.36,48.95 40.7,48.07 40.15,47.19 C39.6,46.255 39.05,45.21 38.445,43.945 C34.155,49.005 28.765,51.535 22.275,51.535 C17.655,51.535 13.97,50.215 11.275,47.575 C8.58,44.935 7.205,41.415 7.205,37.015 C7.205,32.34 8.855,28.545 12.21,25.685 C15.565,22.825 20.02,21.395 25.685,21.395 C27.555,21.395 29.48,21.56 31.515,21.835 C33.55,22.11 35.64,22.55 37.84,23.045 L37.84,19.03 C37.84,14.85 36.96,11.935 35.255,10.23 C33.495,8.525 30.525,7.7 26.29,7.7 C24.365,7.7 22.385,7.92 20.35,8.415 C18.315,8.91 16.335,9.515 14.41,10.285 C13.53,10.67 12.87,10.89 12.485,11 C12.1,11.11 11.825,11.165 11.605,11.165 C10.835,11.165 10.45,10.615 10.45,9.46 L10.45,6.765 C10.45,5.885 10.56,5.225 10.835,4.84 C11.11,4.455 11.605,4.07 12.375,3.685 C14.3,2.695 16.61,1.87 19.305,1.21 C22,0.495 24.86,0.165 27.885,0.165 C34.43,0.165 39.215,1.65 42.295,4.62 C45.32,7.59 46.86,12.1 46.86,18.15 L46.86,35.97 L46.97,35.97 Z M24.64,44.33 C26.455,44.33 28.325,44 30.305,43.34 C32.285,42.68 34.045,41.47 35.53,39.82 C36.41,38.775 37.07,37.62 37.4,36.3 C37.73,34.98 37.95,33.385 37.95,31.515 L37.95,29.205 C36.355,28.82 34.65,28.49 32.89,28.27 C31.13,28.05 29.425,27.94 27.72,27.94 C24.035,27.94 21.34,28.655 19.525,30.14 C17.71,31.625 16.83,33.715 16.83,36.465 C16.83,39.05 17.49,40.975 18.865,42.295 C20.185,43.67 22.11,44.33 24.64,44.33 Z M68.805,50.27 C67.815,50.27 67.155,50.105 66.715,49.72 C66.275,49.39 65.89,48.62 65.56,47.575 L52.635,5.06 C52.305,3.96 52.14,3.245 52.14,2.86 C52.14,1.98 52.58,1.485 53.46,1.485 L58.85,1.485 C59.895,1.485 60.61,1.65 60.995,2.035 C61.435,2.365 61.765,3.135 62.095,4.18 L71.335,40.59 L79.915,4.18 C80.19,3.08 80.52,2.365 80.96,2.035 C81.4,1.705 82.17,1.485 83.16,1.485 L87.56,1.485 C88.605,1.485 89.32,1.65 89.76,2.035 C90.2,2.365 90.585,3.135 90.805,4.18 L99.495,41.03 L109.01,4.18 C109.34,3.08 109.725,2.365 110.11,2.035 C110.55,1.705 111.265,1.485 112.255,1.485 L117.37,1.485 C118.25,1.485 118.745,1.925 118.745,2.86 C118.745,3.135 118.69,3.41 118.635,3.74 C118.58,4.07 118.47,4.51 118.25,5.115 L104.995,47.63 C104.665,48.73 104.28,49.445 103.84,49.775 C103.4,50.105 102.685,50.325 101.75,50.325 L97.02,50.325 C95.975,50.325 95.26,50.16 94.82,49.775 C94.38,49.39 93.995,48.675 93.775,47.575 L85.25,12.1 L76.78,47.52 C76.505,48.62 76.175,49.335 75.735,49.72 C75.295,50.105 74.525,50.27 73.535,50.27 L68.805,50.27 Z M139.48,51.755 C136.62,51.755 133.76,51.425 131.01,50.765 C128.26,50.105 126.115,49.39 124.685,48.565 C123.805,48.07 123.2,47.52 122.98,47.025 C122.76,46.53 122.65,45.98 122.65,45.485 L122.65,42.68 C122.65,41.525 123.09,40.975 123.915,40.975 C124.245,40.975 124.575,41.03 124.905,41.14 C125.235,41.25 125.73,41.47 126.28,41.69 C128.15,42.515 130.185,43.175 132.33,43.615 C134.53,44.055 136.675,44.275 138.875,44.275 C142.34,44.275 145.035,43.67 146.905,42.46 C148.775,41.25 149.765,39.49 149.765,37.235 C149.765,35.695 149.27,34.43 148.28,33.385 C147.29,32.34 145.42,31.405 142.725,30.525 L134.75,28.05 C130.735,26.785 127.765,24.915 125.95,22.44 C124.135,20.02 123.2,17.325 123.2,14.465 C123.2,12.155 123.695,10.12 124.685,8.36 C125.675,6.6 126.995,5.06 128.645,3.85 C130.295,2.585 132.165,1.65 134.365,0.99 C136.565,0.33 138.875,0.055 141.295,0.055 C142.505,0.055 143.77,0.11 144.98,0.275 C146.245,0.44 147.4,0.66 148.555,0.88 C149.655,1.155 150.7,1.43 151.69,1.76 C152.68,2.09 153.45,2.42 154,2.75 C154.77,3.19 155.32,3.63 155.65,4.125 C155.98,4.565 156.145,5.17 156.145,5.94 L156.145,8.525 C156.145,9.68 155.705,10.285 154.88,10.285 C154.44,10.285 153.725,10.065 152.79,9.625 C149.655,8.195 146.135,7.48 142.23,7.48 C139.095,7.48 136.62,7.975 134.915,9.02 C133.21,10.065 132.33,11.66 132.33,13.915 C132.33,15.455 132.88,16.775 133.98,17.82 C135.08,18.865 137.115,19.91 140.03,20.845 L147.84,23.32 C151.8,24.585 154.66,26.345 156.365,28.6 C158.07,30.855 158.895,33.44 158.895,36.3 C158.895,38.665 158.4,40.81 157.465,42.68 C156.475,44.55 155.155,46.2 153.45,47.52 C151.745,48.895 149.71,49.885 147.345,50.6 C144.87,51.37 142.285,51.755 139.48,51.755 Z" id="Shape" fill="#252F3E" fill-rule="nonzero"></path>
                    <g id="Group" transform="translate(0.000000, 61.600000)" fill="#FF9900">
                        <path d="M149.875,16.885 C131.78,30.25 105.49,37.345 82.885,37.345 C51.205,37.345 22.66,25.63 1.1,6.16 C-0.605,4.62 0.935,2.53 2.97,3.74 C26.29,17.27 55.055,25.465 84.81,25.465 C104.885,25.465 126.94,21.285 147.235,12.705 C150.26,11.33 152.845,14.685 149.875,16.885 Z" id="Path"></path>
                        <path d="M157.41,8.305 C155.1,5.335 142.12,6.875 136.235,7.59 C134.475,7.81 134.2,6.27 135.795,5.115 C146.135,-2.145 163.13,-0.055 165.11,2.365 C167.09,4.84 164.56,21.835 154.88,29.975 C153.395,31.24 151.965,30.58 152.625,28.93 C154.825,23.485 159.72,11.22 157.41,8.305 Z" id="Path"></path>
                    </g>
                </g>
            </g>
        </g>
    </g>
</svg>